<svg version="1" xmlns="http://www.w3.org/2000/svg" width="1333.333" height="1333.333" viewBox="0 0 1000.000000 1000.000000"><path d="M0 500v500h1000V0H0v500zm226-169.9C290.6 401.5 343.7 460 344 460c.3-.1 54.3-58.5 120-130l119.5-129.9h77c42.4 0 83.3.4 91.1.9 95 6.5 167.7 77.4 174.3 170.1 2.9 40.5-11.1 80.3-38 108.4-4.5 4.7-8 8.7-7.8 8.9.2.2 4 2.5 8.4 5.1 11.4 6.9 17.8 12 27.5 22.1 24 25 35.2 55.5 35.2 95.4-.1 25.8-3.1 45.6-10.7 68.7-19.6 59.6-64.4 100.7-124.5 114.2-25.3 5.7-17.8 5.4-182.2 5.8l-151.8.4V532.6l-5.1 4.9c-2.7 2.8-31.7 32.8-64.2 66.7L353.5 666h-17.4l-63.3-66.4-63.3-66.4-.3 133.4L209 800H52V200l28.3.1h28.2l117.5 130z"/><path d="M630 385.5v48.6l55.3-.3 55.2-.3 6.8-3.2c24.6-11.7 34-43.1 20.6-69.5-3.7-7.4-11.7-15.6-18.2-18.7-10.3-5-11.7-5.1-67.4-5.1H630v48.5zM630 612.5V664h64.5c43.5 0 66.1-.4 69.7-1.1 21.5-4.5 35.8-24.3 35.8-49.5 0-26.9-15.7-47.6-39-51.3-4-.7-30-1.1-68.7-1.1H630v51.5z"/></svg>