<?xml version="1.0" standalone="no"?>
<!DOCTYPE svg PUBLIC "-//W3C//DTD SVG 20010904//EN"
 "http://www.w3.org/TR/2001/REC-SVG-20010904/DTD/svg10.dtd">
<svg version="1.0" xmlns="http://www.w3.org/2000/svg"
 width="291.000000pt" height="291.000000pt" viewBox="0 0 291.000000 291.000000"
 preserveAspectRatio="xMidYMid meet">
<metadata>
Created by potrace 1.11, written by Peter Selinger 2001-2013
</metadata>
<g transform="translate(0.000000,291.000000) scale(0.100000,-0.100000)"
fill="#000000" stroke="none">
<path d="M1360 2756 c-108 -64 -717 -418 -780 -453 -35 -20 -73 -41 -222 -122
l-78 -42 6 -692 c4 -381 9 -695 13 -699 7 -8 1123 -644 1166 -665 30 -14 32
-13 620 329 l590 344 3 691 2 691 -487 278 c-269 153 -537 306 -598 341 -60
35 -114 63 -120 62 -5 0 -57 -28 -115 -63z m100 -571 c0 -311 -3 -565 -8 -565
-6 0 -570 252 -731 327 -19 8 -104 47 -190 85 -86 38 -159 73 -164 77 -4 4
158 104 360 221 203 118 447 260 543 317 96 56 178 102 183 103 4 0 7 -254 7
-565z m435 345 c254 -144 580 -330 669 -382 l69 -41 -26 -14 c-15 -7 -233
-106 -484 -219 -252 -113 -490 -220 -530 -239 -39 -18 -74 -31 -77 -27 -3 3
-6 261 -6 573 l0 568 93 -52 c50 -29 182 -104 292 -167z m-1107 -945 c65 -14
229 -50 365 -79 227 -49 268 -60 256 -69 -16 -12 -768 -447 -773 -447 -3 0 -6
140 -6 310 0 308 0 310 21 310 11 0 73 -11 137 -25z m1500 -265 c1 -146 0
-271 -3 -278 -4 -10 -9 -11 -18 -4 -6 5 -79 48 -162 94 -343 194 -525 300
-525 307 0 5 30 13 68 20 37 6 189 38 337 70 149 33 277 58 285 57 13 -1 15
-39 18 -266z m-416 -113 c205 -117 455 -259 556 -316 100 -58 182 -107 182
-110 0 -8 -294 -179 -299 -174 -3 2 9 18 26 36 69 72 87 165 45 224 -32 45
-106 91 -185 115 -98 29 -287 22 -402 -15 -98 -33 -104 -33 -78 -4 57 62 70
146 29 194 -55 65 -191 113 -321 113 -38 0 -113 -9 -165 -20 -52 -10 -95 -18
-96 -17 -2 1 51 34 118 72 66 39 137 80 157 92 20 12 41 22 48 22 6 1 179 -95
385 -212z m-521 -188 c86 -29 101 -83 42 -141 -37 -36 -253 -168 -275 -168
-11 0 -227 116 -241 130 -7 6 118 82 233 140 90 46 178 60 241 39z m547 -243
c78 -40 83 -86 18 -149 -47 -46 -289 -190 -310 -185 -20 5 -275 142 -276 149
0 3 15 13 33 22 17 9 64 35 102 57 207 121 341 154 433 106z"/>
</g>
</svg>
